<svg xmlns="http://www.w3.org/2000/svg" viewBox="0 0 65 65" width="65" height="65">
  <!-- Definitions for gradients and effects -->
  <defs>
    <linearGradient id="mainGradient" x1="0%" y1="0%" x2="100%" y2="100%">
      <stop offset="0%" stop-color="#2A0845" />
      <stop offset="100%" stop-color="#43146F" />
    </linearGradient>
    <linearGradient id="accentGradient" x1="0%" y1="0%" x2="100%" y2="0%">
      <stop offset="0%" stop-color="#9370DB" />
      <stop offset="100%" stop-color="#A586E5" />
    </linearGradient>
    <filter id="shadow" x="-20%" y="-20%" width="140%" height="140%">
      <feDropShadow dx="0.5" dy="0.5" stdDeviation="0.6" flood-opacity="0.3" />
    </filter>
  </defs>
  
  <!-- Background -->
  <rect x="0" y="0" width="65" height="65" fill="#E8E1F0" />
  
  <!-- Main T shape (dark) -->
  <path d="M16 16 
           L49 16 
           L49 24
           L37 24
           L37 49
           L28 49
           L28 24
           L16 24
           Z" 
        fill="url(#mainGradient)" />
  
  <!-- Front T shape (accent) -->
  <path d="M19 13 
           L52 13 
           L52 21
           L40 21
           L40 46
           L31 46
           L31 21
           L19 21
           Z" 
        fill="url(#accentGradient)" 
        filter="url(#shadow)" />
  
  <!-- Enhanced visible details -->
  <rect x="31" y="27" width="9" height="1.5" fill="#2A0845" opacity="0.3" rx="0.75" />
  <rect x="31" y="33" width="9" height="1.5" fill="#2A0845" opacity="0.3" rx="0.75" />
  <rect x="31" y="39" width="9" height="1.5" fill="#2A0845" opacity="0.3" rx="0.75" />
  
  <!-- More visible corner details -->
  <path d="M55 49 L52 49 L52 46" fill="none" stroke="#2A0845" stroke-width="1.2" opacity="0.5" stroke-linecap="round" />
  <path d="M10 16 L13 16 L13 19" fill="none" stroke="#2A0845" stroke-width="1.2" opacity="0.5" stroke-linecap="round" />
  
  <!-- Enhanced decorative elements -->
  <circle cx="36" cy="10" r="2" fill="#2A0845" opacity="0.3" />
  <circle cx="55" cy="35" r="2.5" fill="#2A0845" opacity="0.2" />
  <circle cx="10" cy="35" r="2.5" fill="#2A0845" opacity="0.2" />
</svg>
